<svg width="30" height="30" viewBox="0 0 30 30" fill="none" xmlns="http://www.w3.org/2000/svg">
<path d="M20.6829 16.2476C21.6204 16.2476 22.4454 15.7351 22.8704 14.9603L27.3454 6.84898C27.8079 6.0241 27.2079 4.99925 26.2579 4.99925H7.75786L6.58286 2.49963H2.49536V4.99925H4.99536L9.49536 14.4853L7.80786 17.5349C6.89536 19.2096 8.09536 21.2468 9.99536 21.2468H24.9954V18.7472H9.99536L11.3704 16.2476H20.6829ZM8.94536 7.49888H24.1329L20.6829 13.7479H11.9079L8.94536 7.49888ZM9.99536 22.4966C8.62036 22.4966 7.50786 23.6215 7.50786 24.9963C7.50786 26.3711 8.62036 27.4959 9.99536 27.4959C11.3704 27.4959 12.4954 26.3711 12.4954 24.9963C12.4954 23.6215 11.3704 22.4966 9.99536 22.4966ZM22.4954 22.4966C21.1204 22.4966 20.0079 23.6215 20.0079 24.9963C20.0079 26.3711 21.1204 27.4959 22.4954 27.4959C23.8704 27.4959 24.9954 26.3711 24.9954 24.9963C24.9954 23.6215 23.8704 22.4966 22.4954 22.4966Z" fill="#1C9AD6"/>
</svg>
